<svg xmlns="http://www.w3.org/2000/svg" width="139" height="135.96" viewBox="0 0 139 135.96"><defs><style>.a{fill:#ffbe00;}.b{fill:#0571b3;}.c{fill:#056099;}.d{fill:#f02929;}.e{fill:#06163a;}.f{fill:#fdf7bd;}.g{fill:#f5dc90;}.h{fill:#ffe899;}.i{fill:#fbc56d;}.j{fill:#f4aa39;}.k{fill:#fdcdc7;}.l{fill:#fd8e82;}</style></defs><g transform="translate(0 -5.998)"><path class="a" d="M132.187,109.76a2.592,2.592,0,0,1,2.09,4.1,67.977,67.977,0,1,1-18.189-97,6.744,6.744,0,0,1,3.095,5.674V96.756A12.988,12.988,0,0,0,132.187,109.76Z" transform="translate(-8.2)"/><path class="b" d="M205.4,383.1h30.515v31.845a68.909,68.909,0,0,1-30.515,0V383.1Z" transform="translate(-149.637 -274.725)"/><path class="c" d="M219.188,394.277H177.569a2.781,2.781,0,0,1-2.769-2.769v-5.538a2.781,2.781,0,0,1,2.769-2.769h41.619a2.781,2.781,0,0,1,2.769,2.769v5.538A2.781,2.781,0,0,1,219.188,394.277Z" transform="translate(-127.345 -274.798)"/><path class="d" d="M131.208,134.748a67.726,67.726,0,0,1-5.185,8.335H4.154A4.154,4.154,0,0,1,0,138.929V50.154A4.154,4.154,0,0,1,4.154,46h103.68A67.126,67.126,0,0,1,118.5,54.525C123.037,58.9,131.208,134.748,131.208,134.748ZM71.02,154.159a8.336,8.336,0,0,0-8.335,8.335v8.09a70.456,70.456,0,0,0,8.335.516,65.12,65.12,0,0,0,8.335-.516v-8.09A8.319,8.319,0,0,0,71.02,154.159Z" transform="translate(0 -29.142)"/><path class="e" d="M12.488,142.983H4.154A4.154,4.154,0,0,1,0,138.829V50.054A4.154,4.154,0,0,1,4.154,45.9h8.335a4.154,4.154,0,0,0-4.154,4.154v88.775A4.136,4.136,0,0,0,12.488,142.983Z" transform="translate(0 -29.069)"/><path class="f" d="M161.365,125.34a67.732,67.732,0,0,1-7.792,31.628H33.469A2.781,2.781,0,0,1,30.7,154.2V79.269A2.781,2.781,0,0,1,33.469,76.5H140.678A67.665,67.665,0,0,1,161.365,125.34Z" transform="translate(-22.365 -51.362)"/><path class="g" d="M67.742,178.908v5.538a1.39,1.39,0,0,1-1.385,1.385H52.485a1.39,1.39,0,0,1-1.385-1.385v-5.538a1.39,1.39,0,0,1,1.385-1.385H66.357A1.39,1.39,0,0,1,67.742,178.908Zm20.823-1.385H74.692a1.39,1.39,0,0,0-1.385,1.385v5.538a1.39,1.39,0,0,0,1.385,1.385H88.565a1.39,1.39,0,0,0,1.385-1.385v-5.538A1.39,1.39,0,0,0,88.565,177.523Zm22.18,0H96.872a1.39,1.39,0,0,0-1.385,1.385v5.538a1.39,1.39,0,0,0,1.385,1.385h13.873a1.39,1.39,0,0,0,1.385-1.385v-5.538A1.39,1.39,0,0,0,110.745,177.523ZM66.357,190.012H52.485A1.39,1.39,0,0,0,51.1,191.4v5.538a1.39,1.39,0,0,0,1.385,1.385H66.357a1.39,1.39,0,0,0,1.385-1.385V191.4A1.39,1.39,0,0,0,66.357,190.012Zm22.207,0H74.692a1.39,1.39,0,0,0-1.385,1.385v5.538a1.39,1.39,0,0,0,1.385,1.385H88.565a1.39,1.39,0,0,0,1.385-1.385V191.4A1.39,1.39,0,0,0,88.565,190.012Zm22.18,0H96.872a1.39,1.39,0,0,0-1.385,1.385v5.538a1.39,1.39,0,0,0,1.385,1.385h13.873a1.39,1.39,0,0,0,1.385-1.385V191.4A1.39,1.39,0,0,0,110.745,190.012ZM152.934,140.9h-9.421a.846.846,0,0,0-.842.842v1.113a.846.846,0,0,0,.842.842h9.421a.846.846,0,0,0,.842-.842v-1.113A.884.884,0,0,0,152.934,140.9Zm16.642,17.755h-9.421a.846.846,0,0,0-.842.842v1.113a.846.846,0,0,0,.842.842h9.421a.846.846,0,0,0,.842-.842V159.5A.864.864,0,0,0,169.576,158.655Zm-9.448-14.986h9.8c-.434-.923-.9-1.873-1.357-2.769h-8.443a.846.846,0,0,0-.842.842v1.113A.86.86,0,0,0,160.128,143.669ZM133.5,158.655H121.279a.846.846,0,0,0-.842.842v1.113a.846.846,0,0,0,.842.842H133.5a.846.846,0,0,0,.842-.842V159.5A.846.846,0,0,0,133.5,158.655Zm0-17.755H121.279a.846.846,0,0,0-.842.842v1.113a.846.846,0,0,0,.842.842H133.5a.846.846,0,0,0,.842-.842v-1.113A.846.846,0,0,0,133.5,140.9Zm19.438,17.755h-9.421a.846.846,0,0,0-.842.842v1.113a.846.846,0,0,0,.842.842h9.421a.846.846,0,0,0,.842-.842V159.5A.884.884,0,0,0,152.934,158.655Z" transform="translate(-37.227 -98.278)"/><path class="h" d="M110.745,141.315H52.485A1.39,1.39,0,0,1,51.1,139.93V98.312a1.39,1.39,0,0,1,1.385-1.385h58.261a1.39,1.39,0,0,1,1.385,1.385V139.93A1.39,1.39,0,0,1,110.745,141.315Zm6.95-19.438v-5.538a1.39,1.39,0,0,1,1.385-1.385h52.315a66.417,66.417,0,0,1,2.715,8.335H119.08A1.414,1.414,0,0,1,117.7,121.877Zm58.152,11.1H119.08a1.39,1.39,0,0,0-1.385,1.385V139.9a1.39,1.39,0,0,0,1.385,1.385h57.147v-1.113A70.129,70.129,0,0,0,175.847,132.98ZM119.08,105.235h47.483a72.019,72.019,0,0,0-5.891-8.335H119.08a1.39,1.39,0,0,0-1.385,1.385v5.538A1.4,1.4,0,0,0,119.08,105.235Z" transform="translate(-37.227 -66.224)"/><path class="i" d="M320.4,126.068v1.113a.846.846,0,0,1-.842.842H307.342a.846.846,0,0,1-.842-.842v-1.113a.846.846,0,0,1,.842-.842h12.217A.846.846,0,0,1,320.4,126.068Zm-.842-18.868H307.342a.846.846,0,0,0-.842.842v1.113a.846.846,0,0,0,.842.842h12.217a.846.846,0,0,0,.842-.842v-1.113A.829.829,0,0,0,319.558,107.2Zm26.66,2.769h4.67q-.937-1.425-1.955-2.769h-2.715a.846.846,0,0,0-.842.842v1.113A.841.841,0,0,0,346.218,109.969Zm-26.66,33.284H307.342a.846.846,0,0,0-.842.842v1.113a.846.846,0,0,0,.842.842h12.217a.846.846,0,0,0,.842-.842v-1.113A.846.846,0,0,0,319.558,143.253ZM339,107.2h-9.421a.846.846,0,0,0-.842.842v1.113a.846.846,0,0,0,.842.842H339a.846.846,0,0,0,.842-.842v-1.113A.846.846,0,0,0,339,107.2Zm0,36.053h-9.421a.846.846,0,0,0-.842.842v1.113a.846.846,0,0,0,.842.842H339a.846.846,0,0,0,.842-.842v-1.113A.864.864,0,0,0,339,143.253Zm16.642,0h-9.421a.846.846,0,0,0-.842.842v1.113a.846.846,0,0,0,.842.842h9.421a.846.846,0,0,0,.842-.842v-1.113A.846.846,0,0,0,355.639,143.253Zm0-18.027h-9.421a.846.846,0,0,0-.842.842v1.113a.846.846,0,0,0,.842.842h9.421a.846.846,0,0,0,.842-.842v-1.113A.846.846,0,0,0,355.639,125.227Zm-16.642,0h-9.421a.846.846,0,0,0-.842.842v1.113a.846.846,0,0,0,.842.842H339a.846.846,0,0,0,.842-.842v-1.113A.864.864,0,0,0,339,125.227Z" transform="translate(-223.29 -73.727)"/><path class="j" d="M125.658,149.947c0,1.222-.706,2.226-1.575,2.226H82.275c-.869,0-1.575-1-1.575-2.226s.706-2.226,1.575-2.226H124.11C124.952,147.721,125.658,148.726,125.658,149.947ZM83.279,143.3a20.3,20.3,0,0,1,14.932-15.855.968.968,0,0,1-.217-.624,1.031,1.031,0,0,1,1.032-1.032v-1.032a4.154,4.154,0,0,1,8.307,0v1.032a1.031,1.031,0,0,1,1.032,1.032.968.968,0,0,1-.217.624A20.336,20.336,0,0,1,123.079,143.3a1.01,1.01,0,0,1-1,1.195H84.284A1,1,0,0,1,83.279,143.3Zm17.809-17.511h4.154v-1.032a2.09,2.09,0,0,0-4.181,0v1.032Z" transform="translate(-58.791 -83.489)"/><path class="k" d="M351.2,296.6H299.785a1.39,1.39,0,0,1-1.385-1.385V277.185a1.39,1.39,0,0,1,1.385-1.385h56.387A66.449,66.449,0,0,1,351.2,296.6Z" transform="translate(-217.389 -196.555)"/><path class="l" d="M356.38,286.737v1.113a.846.846,0,0,1-.842.842h-34.37a.846.846,0,0,1-.842-.842v-1.113a.846.846,0,0,1,.842-.842h34.4A.823.823,0,0,1,356.38,286.737Zm-42.433,6.923h-1.955v-1.955a.846.846,0,0,0-.842-.842h-1.113a.846.846,0,0,0-.842.842v1.955h-1.955a.846.846,0,0,0-.842.842v1.113a.846.846,0,0,0,.842.842H309.2v1.955a.846.846,0,0,0,.842.842h1.113a.846.846,0,0,0,.842-.842v-1.955h1.955a.846.846,0,0,0,.842-.842V294.5A.864.864,0,0,0,313.947,293.66Zm7.221-9.421h6.651a.846.846,0,0,0,.842-.842v-1.113a.846.846,0,0,0-.842-.842h-6.651a.846.846,0,0,0-.842.842V283.4A.846.846,0,0,0,321.169,284.239Zm0,9.991h6.651a.846.846,0,0,0,.842-.842v-1.113a.846.846,0,0,0-.842-.842h-6.651a.846.846,0,0,0-.842.842v1.113A.846.846,0,0,0,321.169,294.23Zm23.293,1.656H321.169a.846.846,0,0,0-.842.842v1.113a.846.846,0,0,0,.842.842h23.293a.846.846,0,0,0,.842-.842v-1.113A.846.846,0,0,0,344.462,295.886Zm-30.515-12.217h-1.955v-1.928a.846.846,0,0,0-.842-.842h-1.113a.846.846,0,0,0-.842.842V283.7h-1.955a.846.846,0,0,0-.842.842v1.113a.846.846,0,0,0,.842.842H309.2v1.955a.846.846,0,0,0,.842.842h1.113a.846.846,0,0,0,.842-.842v-1.955h1.955a.846.846,0,0,0,.842-.842v-1.113A.87.87,0,0,0,313.947,283.669Z" transform="translate(-223.217 -200.27)"/></g></svg>