<svg xmlns="http://www.w3.org/2000/svg" xmlns:xlink="http://www.w3.org/1999/xlink" width="143" height="153.121" viewBox="0 0 143 153.121"><defs><style>.a{fill:#ffbe00;}.b{fill:#e7f6fe;}.c{fill:#ffb398;}.d{fill:#fe946f;}.e{fill:#fff;}.f{fill:url(#a);}.g{fill:url(#b);}.h{fill:url(#c);}.i{fill:url(#d);}.j{fill:#f02929;}</style><linearGradient id="a" x1="0.998" y1="35.849" x2="-0.001" y2="35.849" gradientUnits="objectBoundingBox"><stop offset="0" stop-color="#007d29"/><stop offset="0.99" stop-color="#00ff74" stop-opacity="0.6"/></linearGradient><linearGradient id="b" x1="1" y1="2.574" x2="0" y2="2.574" gradientUnits="objectBoundingBox"><stop offset="0" stop-color="#007d29"/><stop offset="1" stop-color="#00ff74"/></linearGradient><linearGradient id="c" x1="0.995" y1="3.184" x2="0.004" y2="3.184" xlink:href="#b"/><linearGradient id="d" x1="0.996" y1="35.849" x2="-0.003" y2="35.849" xlink:href="#a"/></defs><g transform="translate(-25.9 -8)"><rect class="a" width="67.477" height="114.192" transform="translate(61.618 20.976)"/><g transform="translate(92.761 18.381)"><circle class="b" cx="10.381" cy="10.381" r="10.381" transform="translate(46.715)"/><rect class="b" width="5.191" height="5.191" transform="translate(0 93.43)"/></g><path class="c" d="M130.167,337.31a12.973,12.973,0,0,0,12.976-12.976v-2.6a20.781,20.781,0,0,0-20.762-20.762h7.786A12.973,12.973,0,0,0,143.143,288H117.191A5.206,5.206,0,0,0,112,293.191v57.1h41.524V337.31Z" transform="translate(-58.168 -189.165)"/><path class="d" d="M180.976,400A12.973,12.973,0,0,1,168,412.976h23.358v12.976h15.572V412.976h5.191V400Z" transform="translate(-96.001 -264.831)"/><g transform="translate(101.844 96.24)"><path class="c" d="M319.358,292.976H302.488A6.507,6.507,0,0,1,296,286.488h0A6.507,6.507,0,0,1,302.488,280h16.869a6.507,6.507,0,0,1,6.488,6.488h0A6.507,6.507,0,0,1,319.358,292.976Z" transform="translate(-284.321 -280)"/><path class="c" d="M319.358,332.976H302.488A6.507,6.507,0,0,1,296,326.488h0A6.507,6.507,0,0,1,302.488,320h16.869a6.507,6.507,0,0,1,6.488,6.488h0A6.507,6.507,0,0,1,319.358,332.976Z" transform="translate(-284.321 -307.024)"/><path class="c" d="M307.358,372.976H290.488A6.507,6.507,0,0,1,284,366.488h0A6.507,6.507,0,0,1,290.488,360h16.869a6.507,6.507,0,0,1,6.488,6.488h0A6.507,6.507,0,0,1,307.358,372.976Z" transform="translate(-276.214 -334.047)"/><path class="c" d="M283.357,412.976H266.488A6.507,6.507,0,0,1,260,406.488h0A6.507,6.507,0,0,1,266.488,400h16.869a6.507,6.507,0,0,1,6.488,6.488h0A6.507,6.507,0,0,1,283.357,412.976Z" transform="translate(-260 -361.071)"/></g><rect width="51.906" height="5.191" transform="translate(69.403 18.381)"/><path d="M198.728,205.417a9.11,9.11,0,0,0-9.083-9.083h-5.191V160h-5.191v36.334h-6.488a9.062,9.062,0,0,0-6.326,15.572,9.1,9.1,0,0,0-2.757,6.488,8.921,8.921,0,0,0,1.395,4.769,9.083,9.083,0,0,0-5.288,8.208,9.271,9.271,0,0,0,.908,3.893H140.334a23.316,23.316,0,0,0-10.057-19.173,15.6,15.6,0,0,0,10.057-14.566,2.6,2.6,0,0,0-2.6-2.6H116.976V172.976h-5.191v25.953A7.809,7.809,0,0,0,104,206.715v57.1h5.191v-57.1a2.6,2.6,0,0,1,2.6-2.6h23.033a10.406,10.406,0,0,1-10.057,7.786h-7.786a2.6,2.6,0,0,0,0,5.191,18.179,18.179,0,0,1,18.167,18.167v2.6a2.6,2.6,0,0,0,2.6,2.6h15.182a9.271,9.271,0,0,0-.908,3.893,9.11,9.11,0,0,0,9.083,9.083v10.381h5.191V253.43h11.679a9.11,9.11,0,0,0,9.083-9.083,8.863,8.863,0,0,0-.941-3.925,9.077,9.077,0,0,0,8.727-9.051,8.921,8.921,0,0,0-1.395-4.769,9.013,9.013,0,0,0,2.53-14.7A9.1,9.1,0,0,0,198.728,205.417ZM177.965,248.24H161.1a3.893,3.893,0,0,1,0-7.786h16.869a3.893,3.893,0,0,1,0,7.786Zm7.786-12.976H168.882a3.893,3.893,0,0,1,0-7.786h16.869a3.893,3.893,0,0,1,0,7.786Zm7.786-16.869a3.9,3.9,0,0,1-3.893,3.893H172.775a3.893,3.893,0,1,1,0-7.786h16.869A3.9,3.9,0,0,1,193.537,218.394Zm-20.762-9.083a3.893,3.893,0,1,1,0-7.786h16.869a3.893,3.893,0,1,1,0,7.786Z" transform="translate(-52.764 -102.69)"/><rect width="5.191" height="5.191" transform="translate(92.761 111.811)"/><g transform="translate(116.54 8)"><circle class="e" cx="26.18" cy="26.18" r="26.18"/></g><g transform="translate(118.908 10.174)"><path class="f" d="M373,83.7v2.79h3.374l-1.557-2.79Z" transform="translate(-353.406 -61.316)"/><path class="g" d="M336.379,14.7a23.779,23.779,0,1,0,23.779,23.779A23.772,23.772,0,0,0,336.379,14.7ZM351.2,53.3a20.968,20.968,0,1,1-30.04-29.262l.357-.357A20.966,20.966,0,0,1,351.2,53.3Z" transform="translate(-312.6 -14.7)"/><path class="h" d="M360.487,36.893A18.17,18.17,0,1,0,334.4,62.2l.389.389a18.17,18.17,0,1,0,26.083-25.3ZM357.4,48.345h-2.79v2.79h2.79v2.79h-2.79V60.9h-2.4l-3.828-6.975h-4.931V60.9h-2.79V53.925h-2.79v-2.79h2.79v-2.79h-2.79v-2.79h2.79V38.58h2.4l3.86,6.975h4.9V38.58h2.79v6.975h2.79Z" transform="translate(-323.861 -25.961)"/><path class="i" d="M389.957,86.49h1.817V83.7H388.4Z" transform="translate(-363.81 -61.316)"/></g><g transform="translate(75.308 49.881)"><path d="M244.631,207.7H239.7v6.2h4.931a3.115,3.115,0,0,0,3.114-3.114,3.2,3.2,0,0,0-.908-2.206,2.983,2.983,0,0,0-2.206-.876Z" transform="translate(-219.749 -184.797)"/><path d="M246.315,186.966a2.566,2.566,0,0,0-.714-1.752,2.45,2.45,0,0,0-1.752-.714H239.6v4.931h4.282A2.479,2.479,0,0,0,246.315,186.966Z" transform="translate(-219.681 -169.123)"/><path d="M215.555,159.6a14.955,14.955,0,1,0,14.955,14.955A14.98,14.98,0,0,0,215.555,159.6Zm2.66,24.428h-1.33v2.53h-2.6v-2.53h-5.775v-2.6h2.141V167.678h-2.141v-2.6h5.742v-2.53h2.6v2.53h.649a4.9,4.9,0,0,1,3.569,1.492,5.023,5.023,0,0,1,.195,6.942,7.048,7.048,0,0,1,.941.779,5.729,5.729,0,0,1,1.687,4.023,5.67,5.67,0,0,1-5.677,5.71Z" transform="translate(-193.333 -152.301)"/><path d="M216.188,143.621a22.243,22.243,0,1,0,6.521,15.734,22.085,22.085,0,0,0-6.521-15.734Zm-15.766,33.317a17.583,17.583,0,1,1,17.583-17.583,17.6,17.6,0,0,1-17.583,17.583Z" transform="translate(-178.2 -137.1)"/></g><g transform="translate(25.9 20.003)"><circle class="e" cx="20.989" cy="20.989" r="20.989"/></g><g transform="translate(28.495 22.371)"><path class="j" d="M52.683,52.3A18.783,18.783,0,1,0,71.467,71.083,18.774,18.774,0,0,0,52.683,52.3ZM64.395,82.795A16.566,16.566,0,0,1,40.486,59.859l.487-.487A16.562,16.562,0,1,1,64.395,82.795Z" transform="translate(-33.9 -52.3)"/><path class="j" d="M82.907,90.947a2.1,2.1,0,1,1,2.4-2.076,1.1,1.1,0,0,0,1.168,1.038,1.116,1.116,0,0,0,1.038-1.038,4.347,4.347,0,0,0-3.5-4.152v-.584A1.1,1.1,0,0,0,82.842,83.1,1.116,1.116,0,0,0,81.8,84.135v.584a4.347,4.347,0,0,0-3.5,4.152,4.46,4.46,0,0,0,4.607,4.282,2.1,2.1,0,1,1-2.4,2.076,1.1,1.1,0,1,0-2.206,0h0a4.347,4.347,0,0,0,3.5,4.152v.487a1.1,1.1,0,0,0,1.168,1.038,1.116,1.116,0,0,0,1.038-1.038v-.487a4.347,4.347,0,0,0,3.5-4.152A4.46,4.46,0,0,0,82.907,90.947Z" transform="translate(-63.896 -73.105)"/><path class="j" d="M113.976,76.235a14.032,14.032,0,0,0-5.839-5.158,1.1,1.1,0,0,0-.941,1.979,12.02,12.02,0,0,1,5.645,16.058,2.681,2.681,0,0,1-.227.422,1.1,1.1,0,1,0,1.946,1.038h0a14.117,14.117,0,0,0-.584-14.339Z" transform="translate(-82.995 -64.913)"/><path class="j" d="M95.229,67.1h-.065a1.1,1.1,0,1,0-.13,2.206h.195a1.1,1.1,0,0,0,1.038-1.168A1.116,1.116,0,0,0,95.229,67.1Z" transform="translate(-74.5 -62.295)"/><path class="j" d="M57.69,106.637a12.057,12.057,0,0,1-5.645-16.091,2.681,2.681,0,0,1,.227-.422,1.1,1.1,0,0,0-1.946-1.038h0a14.211,14.211,0,0,0,5.9,19.238c.162.1.324.162.519.26a1.3,1.3,0,0,0,.487.1,1.094,1.094,0,0,0,1.1-1.1,1.248,1.248,0,0,0-.649-.941Z" transform="translate(-43.87 -76.758)"/><path class="j" d="M84.968,148H84.9a1.1,1.1,0,1,0,0,2.206h.065a1.1,1.1,0,0,0,1.038-1.168A1.067,1.067,0,0,0,84.968,148Z" transform="translate(-67.612 -116.954)"/></g></g></svg>