<svg xmlns="http://www.w3.org/2000/svg" width="83" height="83" viewBox="0 0 83 83"><defs><style>.a{fill:#fff;stroke:#707070;stroke-linecap:round;stroke-linejoin:round;stroke-miterlimit:10;stroke-dasharray:3 3;}.b{fill:#e7e7e9;}.c{stroke:none;}.d{fill:none;}</style></defs><g transform="translate(1 1)"><g class="a"><circle class="c" cx="40.5" cy="40.5" r="40.5"/><circle class="d" cx="40.5" cy="40.5" r="41"/></g><path class="b" d="M39.75,0A39.75,39.75,0,1,0,79.5,39.75,39.867,39.867,0,0,0,39.75,0Zm0,11.925A11.712,11.712,0,0,1,51.675,23.85,11.712,11.712,0,0,1,39.75,35.775,11.712,11.712,0,0,1,27.825,23.85,11.712,11.712,0,0,1,39.75,11.925Zm0,56.445A29,29,0,0,1,15.9,55.65c0-7.95,15.9-12.322,23.85-12.322S63.6,47.7,63.6,55.65A29,29,0,0,1,39.75,68.37Z" transform="translate(1)"/></g></svg>