<svg xmlns="http://www.w3.org/2000/svg" width="139.083" height="139.083" viewBox="0 0 139.083 139.083"><defs><style>.a{fill:#f5c86e;}.b{fill:#fae196;}.c{fill:#f5b955;}</style></defs><g transform="translate(0 0)"><path class="a" d="M338.935,19,285.1,96.719l-5.612,8.1v27.2l20.458-19.994L289.5,92.526" transform="translate(-203.564 -13.839)"/><path class="b" d="M103.526,92.449,64,80.356,182.981,10V116.757l-59.491-18.2" transform="translate(-46.614 -7.284)"/><path class="c" d="M231.318,132.023l-17.965-32.7L290.767,19l-57.78,83.41Z" transform="translate(-155.396 -13.839)"/><path d="M177.043.357a2.716,2.716,0,0,0-2.729.021l-49.78,29.437a2.716,2.716,0,0,0,2.765,4.676l35.717-21.12L96.488,82.4,63.4,72.277l43.182-25.535a2.716,2.716,0,0,0-2.765-4.677L55.333,70.734a2.717,2.717,0,0,0,.588,4.936L95.437,87.76l17.433,31.732a.644.644,0,0,0,.056.085,2.709,2.709,0,0,0,4.223.549L137.2,100.535,174.9,112.071a2.717,2.717,0,0,0,3.511-2.6V2.716A2.717,2.717,0,0,0,177.043.357ZM153.309,31.272l-40.29,58.162a2.718,2.718,0,0,0-.483,1.547V107.6l-11.9-21.668Zm-35.341,80.459V94.653l13.308,4.071ZM119.6,89.471l53.378-77.056V105.8Z" transform="translate(-39.331 0)"/><path d="M84,345.444a2.717,2.717,0,0,0-3.842,0L54.795,370.8a2.717,2.717,0,0,0,3.842,3.842L84,349.285A2.717,2.717,0,0,0,84,345.444Z" transform="translate(-39.33 -251.026)"/><path d="M7.044,469.8.8,476.044a2.716,2.716,0,1,0,3.842,3.842l6.248-6.248A2.716,2.716,0,1,0,7.044,469.8Z" transform="translate(0 -341.599)"/><path d="M128.3,491.41a2.718,2.718,0,1,0,1.92.8A2.732,2.732,0,0,0,128.3,491.41Z" transform="translate(-91.466 -357.92)"/><path d="M164.762,417.8,151.33,431.233a2.716,2.716,0,0,0,3.842,3.842L168.6,421.643a2.716,2.716,0,0,0-3.842-3.842Z" transform="translate(-109.642 -303.728)"/><path d="M335.317,414.006l-13.468,13.468a2.717,2.717,0,1,0,3.842,3.842l13.468-13.468a2.717,2.717,0,0,0-3.842-3.842Z" transform="translate(-233.84 -300.964)"/><path d="M269.146,138.813a2.717,2.717,0,1,0-1.921-.8A2.725,2.725,0,0,0,269.146,138.813Z" transform="translate(-194.055 -97.148)"/></g></svg>