<svg xmlns="http://www.w3.org/2000/svg" width="79.986" height="86.13" viewBox="0 0 79.986 86.13">
  <g id="logo-symbol" transform="translate(-36.728 -210.711)">
    <path id="Path_71" data-name="Path 71" d="M114.448,272.007l-2.183-2.183-10.156-16.263a5.5,5.5,0,0,1-.368-1.983v-.652a10.513,10.513,0,0,0-3.1-7.483l-8.86-8.86a23.77,23.77,0,0,0,2.737-5.591l4.424-13.2a3.386,3.386,0,0,0-5.805-3.253l-9.661,11.517a19.593,19.593,0,0,1-10.763,6.513l-3.046.668H63.5a41.474,41.474,0,0,0-24.362-1.187l-1.91.481v65.811H56.967l.7-1.377c1.339-2.619,4.441-4.151,6.808-4.975a26.3,26.3,0,0,1,4.822-1.161l4.979,1.7c4.63,1.584,13.38,1,17.723-2.13l3.609-2.6a.088.088,0,0,1,.09-.007l2.571,1.308a7.6,7.6,0,0,0,7.874-.582l7.533-5.355a6.017,6.017,0,0,0,.768-9.158Zm-29.1-44.7,4.007-4.777-1.629,4.861a18.835,18.835,0,0,1-12.214,11.962c-9.182,2.865-11.294,3.518-11.67,3.631a2.8,2.8,0,0,1-1.624-5.345c.385-.1,2.115-.5,9.576-2.13A24.673,24.673,0,0,0,85.348,227.3Zm25.805,49.039a.954.954,0,0,1-.4.7l-7.532,5.355a2.564,2.564,0,0,1-2.655.2l-2.571-1.308a5.123,5.123,0,0,0-5.335.411l-3.609,2.6c-2.614,1.883-9.61,2.655-13.133,1.45l-6.039-2.066-.537.049c-.466.043-10.794,1.064-15.339,7.554H42.282V234.523a37.63,37.63,0,0,1,15.341.233,7.845,7.845,0,0,0-.009,10.918,20.913,20.913,0,0,0-5.225,13.8v2.461l2.459.065c.02,0,.135,0,.329,0a31.453,31.453,0,0,0,4.808-.393c3.942-.635,6.946-1.936,8.928-3.866a8.722,8.722,0,0,0,2.679-6.391H66.538a3.639,3.639,0,0,1-1.145,2.766c-1.765,1.723-5.155,2.443-7.731,2.7a16.307,16.307,0,0,1,4.647-8.795,7.919,7.919,0,0,0,.96.061,7.819,7.819,0,0,0,1.747-.2l.026-.006c.142-.033.254-.059,11.976-3.717a23.843,23.843,0,0,0,9.522-5.684l8.527,8.528a5.488,5.488,0,0,1,1.62,3.909v.652a10.526,10.526,0,0,0,.834,4.119l.078.185,10.684,17.108,2.591,2.591a.95.95,0,0,1,.279.761Z" fill="#051231" stroke="#fff" stroke-miterlimit="10" stroke-width="1"/>
    <path id="Path_72" data-name="Path 72" d="M87.5,247.317,77.323,253.21,87.5,259.1l2.532-4.374L87.41,253.21l2.624-1.519Z" fill="#051231"/>
    <path id="Path_73" data-name="Path 73" d="M102.732,270.859H97.679c0,4.9,4.164,6.94,6.963,7.114l.313-5.043a3.928,3.928,0,0,1-1.268-.391,1.648,1.648,0,0,1-.955-1.68Z" fill="#051231"/>
  </g>
</svg>
